<?xml version="1.0" standalone="no"?>
<!DOCTYPE svg PUBLIC "-//W3C//DTD SVG 20010904//EN"
 "http://www.w3.org/TR/2001/REC-SVG-20010904/DTD/svg10.dtd">
<svg version="1.0" xmlns="http://www.w3.org/2000/svg"
 width="48.000000pt" height="48.000000pt" viewBox="0 0 48.000000 48.000000"
 preserveAspectRatio="xMidYMid meet">

<g transform="translate(0.000000,48.000000) scale(0.100000,-0.100000)"
fill="#000000" stroke="none">
<path d="M154 396 c-24 -24 -44 -52 -44 -62 1 -15 8 -10 32 19 17 21 43 44 59
53 58 29 118 -13 126 -90 8 -66 -3 -95 -37 -108 -55 -19 -48 -98 8 -98 32 0
52 16 52 42 0 11 9 36 20 58 38 74 22 151 -40 204 -25 21 -42 26 -82 26 -46 0
-54 -4 -94 -44z"/>
<path d="M235 339 c-16 -5 -46 -11 -65 -14 -84 -13 -140 -77 -140 -159 0 -43
4 -53 39 -87 36 -37 42 -39 97 -38 42 0 53 3 39 9 -11 5 -31 9 -43 9 -37 1
-80 32 -92 65 -27 78 111 191 160 131 34 -41 105 10 82 59 -12 28 -36 35 -77
25z"/>
</g>
</svg>
