<?xml version="1.0" standalone="no"?>
<!DOCTYPE svg PUBLIC "-//W3C//DTD SVG 20010904//EN"
 "http://www.w3.org/TR/2001/REC-SVG-20010904/DTD/svg10.dtd">
<svg version="1.0" xmlns="http://www.w3.org/2000/svg"
 width="500.000000pt" height="500.000000pt" viewBox="0 0 500.000000 500.000000"
 preserveAspectRatio="xMidYMid meet">

<g transform="translate(0.000000,500.000000) scale(0.100000,-0.100000)"
fill="#000000" stroke="none">
<path d="M2485 4684 c-292 -42 -481 -112 -673 -249 -247 -177 -461 -441 -623
-770 -60 -123 -139 -318 -139 -345 0 -17 17 -11 113 33 105 50 143 85 195 177
224 405 593 735 917 821 61 16 110 21 205 21 156 1 242 -20 390 -94 93 -46
117 -64 211 -158 119 -118 179 -205 255 -365 94 -201 140 -378 150 -585 13
-256 -47 -548 -162 -788 -53 -110 -94 -146 -177 -157 -242 -31 -391 -122 -472
-289 -147 -302 -52 -609 237 -761 136 -72 278 -80 429 -25 170 62 271 162 331
327 17 47 22 90 27 233 l6 175 64 105 c132 214 216 405 270 613 39 145 49 209
60 353 45 591 -232 1157 -729 1489 -237 158 -452 229 -725 239 -71 2 -143 2
-160 0z"/>
<path d="M2665 3630 c-72 -15 -154 -51 -216 -93 -126 -87 -99 -81 -323 -78
-282 3 -463 -24 -711 -105 -297 -98 -485 -211 -685 -413 -169 -171 -286 -357
-375 -596 -207 -555 -84 -1172 306 -1539 226 -212 474 -337 797 -398 106 -21
147 -23 422 -23 313 0 404 8 475 42 19 9 35 19 35 22 -1 6 -106 86 -153 116
-24 15 -55 19 -170 22 -160 4 -400 32 -527 62 -451 105 -739 333 -848 671 -72
222 -48 460 72 698 230 456 646 748 1206 847 203 36 250 17 407 -161 138 -158
352 -211 563 -140 94 32 151 67 214 131 166 169 205 448 93 660 -57 108 -188
215 -315 258 -63 21 -207 31 -267 17z"/>
</g>
</svg>
